<svg width="28" height="28" viewBox="0 0 28 28" fill="none" xmlns="http://www.w3.org/2000/svg">
<path fill-rule="evenodd" clip-rule="evenodd" d="M8.63553 21.28H20.72C22.2664 21.28 23.52 20.0264 23.52 18.48V10.64C23.52 10.3307 23.7707 10.08 24.08 10.08C24.3893 10.08 24.64 10.3307 24.64 10.64V18.48C24.64 20.645 22.8849 22.4 20.72 22.4H8.62834L11.0357 24.8037C11.2545 25.0223 11.2548 25.3768 11.0363 25.5957C10.8177 25.8145 10.4632 25.8148 10.2443 25.5963L6.88429 22.2413C6.77412 22.1313 6.71934 21.9868 6.71998 21.8425V21.84C6.71998 21.6628 6.80232 21.5048 6.93083 21.4021L10.2437 18.0843C10.4622 17.8655 10.8168 17.8652 11.0357 18.0837C11.2545 18.3023 11.2548 18.6568 11.0363 18.8757L8.63553 21.28Z" fill="white" stroke="white"/>
<path fill-rule="evenodd" clip-rule="evenodd" d="M19.3618 6.72H7.27998C5.73359 6.72 4.47999 7.9736 4.47999 9.52V17.36C4.47999 17.6693 4.22926 17.92 3.91999 17.92C3.61071 17.92 3.35999 17.6693 3.35999 17.36V9.52C3.35999 7.35504 5.11503 5.6 7.27998 5.6H19.3743L16.9645 3.19649C16.7455 2.97809 16.7451 2.62351 16.9635 2.40453C17.1819 2.18556 17.5365 2.18509 17.7554 2.4035L21.1154 5.75475C21.2262 5.86525 21.2811 6.0106 21.28 6.15561V6.16C21.28 6.34439 21.1909 6.50797 21.0533 6.61001L17.7565 9.91546C17.5381 10.1344 17.1835 10.1349 16.9645 9.91649C16.7455 9.69808 16.7451 9.34351 16.9635 9.12453L19.3618 6.72Z" fill="white" stroke="white"/>
</svg>
