<svg width="16" height="16" viewBox="0 0 16 16" fill="none" xmlns="http://www.w3.org/2000/svg">
<g opacity="0.66">
<path d="M7.0399 10.88H8.3199V1.91997H7.0399V10.88ZM6.3999 9.01014C5.41602 10.5785 4.45792 12.085 3.5256 13.5299C3.48862 13.5872 3.4825 13.6763 3.51459 13.7856C3.57684 13.9976 3.80803 14.1227 4.03131 14.0602L7.55293 13.074C7.60917 13.0583 7.66865 13.0582 7.72493 13.0739L11.2874 14.0642C11.3889 14.0925 11.4977 14.0825 11.5918 14.0366C11.8061 13.9319 11.8927 13.6937 11.7902 13.5303C10.894 12.1023 9.95061 10.6143 8.9599 9.06617V11.2C8.9599 11.3767 8.81663 11.52 8.6399 11.52H6.7199C6.54317 11.52 6.3999 11.3767 6.3999 11.2V9.01014ZM6.3999 7.80768V1.59997C6.3999 1.42324 6.54317 1.27997 6.7199 1.27997H8.6399C8.81663 1.27997 8.9599 1.42324 8.9599 1.59997V7.88018C10.1498 9.73369 11.2739 11.5037 12.3323 13.1901C12.649 13.6948 12.4112 14.3487 11.8726 14.6117C11.6378 14.7263 11.3681 14.751 11.116 14.6809L7.63953 13.7144L4.20389 14.6765C3.64597 14.8327 3.06228 14.5168 2.90051 13.9659C2.81999 13.6917 2.83907 13.4134 2.98784 13.1829C4.08382 11.4844 5.21561 9.70027 6.3832 7.83052C6.38822 7.82248 6.39379 7.81486 6.3999 7.80768Z" fill="white"/>
<path d="M9.27976 5.12001C9.4565 5.12001 9.59976 5.26328 9.59976 5.44001C9.59976 5.61674 9.4565 5.76001 9.27976 5.76001H6.07977C5.90303 5.76001 5.75977 5.61674 5.75977 5.44001C5.75977 5.26328 5.90303 5.12001 6.07977 5.12001H9.27976ZM9.27976 3.20001C9.4565 3.20001 9.59976 3.34328 9.59976 3.52001C9.59976 3.69674 9.4565 3.84001 9.27976 3.84001H6.07977C5.90303 3.84001 5.75977 3.69674 5.75977 3.52001C5.75977 3.34328 5.90303 3.20001 6.07977 3.20001H9.27976Z" fill="white"/>
</g>
</svg>
