<svg width="16" height="16" viewBox="0 0 16 16" fill="none" xmlns="http://www.w3.org/2000/svg">
<g opacity="0.66">
<path d="M11.1998 1.92004C12.437 1.92004 13.4398 2.92293 13.4398 4.16004V13.12C13.4398 14.3572 12.437 15.36 11.1998 15.36H6.07984C4.84273 15.36 3.83984 14.3572 3.83984 13.12V4.16004C3.83984 2.92293 4.84273 1.92004 6.07984 1.92004H11.1998ZM11.1998 2.56004H6.07984C5.19619 2.56004 4.47984 3.27639 4.47984 4.16004V13.12C4.47984 14.0037 5.19619 14.72 6.07984 14.72H11.1998C12.0835 14.72 12.7998 14.0037 12.7998 13.12V4.16004C12.7998 3.27639 12.0835 2.56004 11.1998 2.56004ZM8.63984 9.60004C9.17004 9.60004 9.59984 10.0299 9.59984 10.56C9.59984 11.0902 9.17004 11.52 8.63984 11.52C8.10965 11.52 7.67984 11.0902 7.67984 10.56C7.67984 10.0299 8.10965 9.60004 8.63984 9.60004Z" fill="white"/>
<path fill-rule="evenodd" clip-rule="evenodd" d="M8.63977 7.68001C10.2303 7.68001 11.5198 8.96943 11.5198 10.56C11.5198 12.1506 10.2303 13.44 8.63977 13.44C7.04919 13.44 5.75977 12.1506 5.75977 10.56C5.75977 8.96943 7.04919 7.68001 8.63977 7.68001ZM8.63977 8.32001C7.40265 8.32001 6.39977 9.32289 6.39977 10.56C6.39977 11.7971 7.40265 12.8 8.63977 12.8C9.87688 12.8 10.8798 11.7971 10.8798 10.56C10.8798 9.32289 9.87688 8.32001 8.63977 8.32001ZM8.63977 3.20001C9.52342 3.20001 10.2398 3.91636 10.2398 4.80001C10.2398 5.68367 9.52342 6.40001 8.63977 6.40001C7.75611 6.40001 7.03977 5.68367 7.03977 4.80001C7.03977 3.91636 7.75611 3.20001 8.63977 3.20001ZM8.63977 3.84001C8.10957 3.84001 7.67977 4.26982 7.67977 4.80001C7.67977 5.33021 8.10957 5.76001 8.63977 5.76001C9.16996 5.76001 9.59977 5.33021 9.59977 4.80001C9.59977 4.26982 9.16996 3.84001 8.63977 3.84001Z" fill="white"/>
</g>
</svg>
