<svg width="32" height="32" viewBox="0 0 32 32" fill="none" xmlns="http://www.w3.org/2000/svg">
<g opacity="0.8">
<path d="M15.999 0C15.4813 0 15.0615 0.41975 15.0615 0.9375V6.9625C15.0615 7.48025 15.4813 7.9 15.999 7.9C16.5168 7.9 16.9365 7.48025 16.9365 6.9625V0.9375C16.9365 0.41975 16.5168 0 15.999 0Z" fill="white"/>
</g>
<g opacity="0.45">
<path d="M15.999 24.1C15.4813 24.1 15.0615 24.5197 15.0615 25.0375V31.0624C15.0615 31.5802 15.4813 31.9999 15.999 31.9999C16.5168 31.9999 16.9365 31.5802 16.9365 31.0624V25.0375C16.9365 24.5197 16.5168 24.1 15.999 24.1Z" fill="white"/>
</g>
<g opacity="0.2">
<path d="M12.2942 7.70443L9.28173 2.48662C9.02286 2.03818 8.44948 1.88456 8.00111 2.1435C7.55273 2.40237 7.39911 2.97575 7.65798 3.42412L10.6705 8.64193C10.8441 8.94274 11.1592 9.1108 11.4832 9.1108C11.6423 9.1108 11.8035 9.0703 11.9511 8.98505C12.3995 8.72618 12.5531 8.15281 12.2942 7.70443Z" fill="white"/>
</g>
<g opacity="0.5">
<path d="M24.343 28.5759L21.3306 23.3582C21.0717 22.9098 20.4983 22.7561 20.0499 23.0151C19.6016 23.274 19.4479 23.8473 19.7068 24.2957L22.7193 29.5134C22.8929 29.8142 23.208 29.9823 23.532 29.9823C23.6911 29.9823 23.8523 29.9418 23.9999 29.8565C24.4483 29.5976 24.6019 29.0243 24.343 28.5759Z" fill="white"/>
</g>
<g opacity="0.25">
<path d="M8.64281 10.6695L3.42493 7.65695C2.97643 7.39795 2.40318 7.55164 2.14431 8.00008C1.88543 8.44845 2.03906 9.02183 2.48743 9.2807L7.70531 12.2933C7.85294 12.3786 8.01412 12.4191 8.17318 12.4191C8.49718 12.4191 8.81231 12.2509 8.98594 11.9501C9.24481 11.5018 9.09119 10.9284 8.64281 10.6695Z" fill="white"/>
</g>
<g opacity="0.55">
<path d="M29.5138 22.7194L24.296 19.7069C23.8475 19.4481 23.2742 19.6017 23.0154 20.0501C22.7565 20.4986 22.9102 21.0719 23.3585 21.3307L28.5763 24.3432C28.724 24.4284 28.8851 24.4689 29.0441 24.4689C29.3681 24.4689 29.6833 24.3008 29.8569 24C30.1158 23.5515 29.9621 22.9782 29.5138 22.7194Z" fill="white"/>
</g>
<g opacity="0.3">
<path d="M6.96256 15.0625H0.9375C0.41975 15.0625 0 15.4823 0 16C0 16.5178 0.41975 16.9375 0.9375 16.9375H6.96256C7.48031 16.9375 7.90006 16.5178 7.90006 16C7.90006 15.4823 7.48031 15.0625 6.96256 15.0625Z" fill="white"/>
</g>
<g opacity="0.6">
<path d="M31.063 15.0625H25.0381C24.5203 15.0625 24.1006 15.4823 24.1006 16C24.1006 16.5178 24.5203 16.9375 25.0381 16.9375H31.063C31.5807 16.9375 32.0005 16.5178 32.0005 16C32.0005 15.4823 31.5807 15.0625 31.063 15.0625Z" fill="white"/>
</g>
<g opacity="0.35">
<path d="M8.98594 20.05C8.72706 19.6015 8.15381 19.4479 7.70531 19.7069L2.48743 22.7194C2.03906 22.9782 1.88543 23.5516 2.14431 24C2.31793 24.3008 2.63306 24.4689 2.95706 24.4689C3.11612 24.4689 3.27731 24.4284 3.42494 24.3431L8.64281 21.3306C9.09119 21.0717 9.24481 20.4984 8.98594 20.05Z" fill="white"/>
</g>
<g opacity="0.65">
<path d="M29.8559 8.00014C29.597 7.55171 29.0237 7.39814 28.5753 7.65702L23.3576 10.6695C22.9092 10.9283 22.7556 11.5017 23.0144 11.9501C23.1881 12.2509 23.5032 12.419 23.8272 12.419C23.9862 12.419 24.1474 12.3785 24.295 12.2933L29.5128 9.28077C29.9612 9.02189 30.1148 8.44852 29.8559 8.00014Z" fill="white"/>
</g>
<g opacity="0.4">
<path d="M11.9511 23.0151C11.5027 22.7561 10.9293 22.9098 10.6705 23.3582L7.65798 28.576C7.39911 29.0244 7.55273 29.5978 8.00111 29.8567C8.14873 29.9419 8.30992 29.9824 8.46898 29.9824C8.79298 29.9824 9.10817 29.8143 9.28173 29.5135L12.2942 24.2957C12.5531 23.8474 12.3995 23.274 11.9511 23.0151Z" fill="white"/>
</g>
<g opacity="0.7">
<path d="M24.0009 2.14365C23.5525 1.88465 22.9791 2.03833 22.7203 2.48677L19.7078 7.70446C19.4489 8.15283 19.6025 8.72621 20.051 8.98508C20.1986 9.07033 20.3598 9.11083 20.5188 9.11083C20.8428 9.11083 21.158 8.94271 21.3316 8.64196L24.344 3.42427C24.6029 2.9759 24.4493 2.40252 24.0009 2.14365Z" fill="white"/>
</g>
</svg>
