<svg width="16" height="16" viewBox="0 0 16 16" fill="none" xmlns="http://www.w3.org/2000/svg">
<g opacity="0.66">
<path d="M10.5702 13.4286H11.9987C12.7877 13.4286 13.4273 12.789 13.4273 12.0001V5.71454C13.4273 4.92559 12.7877 4.28601 11.9987 4.28601H11.5532V3.7146H11.9987C13.1033 3.7146 13.9987 4.61 13.9987 5.71454V12.0001C13.9987 13.1046 13.1033 14 11.9987 14H3.99897C2.89443 14 1.99902 13.1046 1.99902 12.0001V5.71454C1.99902 4.61 2.89443 3.7146 3.99897 3.7146H4.48333V4.28601H3.99897C3.21001 4.28601 2.57044 4.92559 2.57044 5.71454V12.0001C2.57044 12.789 3.21001 13.4286 3.99897 13.4286H5.4275V9.42872H5.99891V13.4286H9.99879V9.42872H10.5702V13.4286Z" fill="white"/>
<path fill-rule="evenodd" clip-rule="evenodd" d="M6.57129 3.7146H9.42835V4.28601H6.57129V3.7146Z" fill="white"/>
<path d="M6.2851 2C6.75847 2 7.14222 2.38374 7.14222 2.85712V9.14265C7.14222 9.61602 6.75847 9.99977 6.2851 9.99977H5.14227C4.6689 9.99977 4.28516 9.61602 4.28516 9.14265V2.85712C4.28516 2.38374 4.6689 2 5.14227 2H6.2851ZM10.8564 2C11.3298 2 11.7135 2.38374 11.7135 2.85712V9.14265C11.7135 9.61602 11.3298 9.99977 10.8564 9.99977H9.71357C9.2402 9.99977 8.85645 9.61602 8.85645 9.14265V2.85712C8.85645 2.38374 9.2402 2 9.71357 2H10.8564ZM6.2851 2.57141H5.14227C4.98448 2.57141 4.85657 2.69933 4.85657 2.85712V9.14265C4.85657 9.30044 4.98448 9.42836 5.14227 9.42836H6.2851C6.44289 9.42836 6.5708 9.30044 6.5708 9.14265V2.85712C6.5708 2.69933 6.44289 2.57141 6.2851 2.57141ZM10.8564 2.57141H9.71357C9.55578 2.57141 9.42787 2.69933 9.42787 2.85712V9.14265C9.42787 9.30044 9.55578 9.42836 9.71357 9.42836H10.8564C11.0142 9.42836 11.1421 9.30044 11.1421 9.14265V2.85712C11.1421 2.69933 11.0142 2.57141 10.8564 2.57141Z" fill="white"/>
</g>
</svg>
