<svg width="16" height="16" viewBox="0 0 16 16" fill="none" xmlns="http://www.w3.org/2000/svg">
<g opacity="0.66">
<path d="M8.36799 2.24048C8.36799 1.8969 8.84008 1.79481 8.98459 2.10714C9.00175 2.14424 9.0198 2.18131 9.03875 2.21836C9.43994 3.00297 10.2405 3.77622 11.4471 4.52978C13.6287 5.89224 13.0391 8.93751 10.632 8.96047C10.4536 8.96217 10.3076 8.82029 10.3059 8.64356C10.3042 8.46684 10.4474 8.3222 10.6258 8.3205C12.3464 8.30409 12.7706 6.11288 11.1026 5.07119C10.2087 4.5129 9.51176 3.9347 9.01396 3.33388C9.01051 4.09799 9.01051 7.00696 9.01396 12.0608C9.01396 12.0804 9.01218 12.0996 9.00878 12.1182C9.01222 12.1673 9.01396 12.2168 9.01396 12.2667C9.01396 13.6359 7.70081 14.72 6.10708 14.72C4.51335 14.72 3.2002 13.6359 3.2002 12.2667C3.2002 10.8976 4.51335 9.81338 6.10708 9.81338C7.01569 9.81338 7.83311 10.1658 8.36799 10.7225V2.24048ZM6.10708 14.08C7.36744 14.08 8.36799 13.254 8.36799 12.2667C8.36799 11.2795 7.36744 10.4534 6.10708 10.4534C4.84671 10.4534 3.84617 11.2795 3.84617 12.2667C3.84617 13.254 4.84671 14.08 6.10708 14.08Z" fill="white"/>
</g>
</svg>
