<svg width="16" height="16" viewBox="0 0 16 16" fill="none" xmlns="http://www.w3.org/2000/svg">
<g opacity="0.66">
<path d="M11.2148 11.7147C11.3726 11.7147 11.5005 11.8426 11.5005 12.0004C11.5005 12.1582 11.3726 12.2861 11.2148 12.2861H4.92883C4.77103 12.2861 4.6431 12.1582 4.6431 12.0004C4.6431 11.8426 4.77103 11.7147 4.92883 11.7147H11.2148ZM12.7316 2C13.1006 2 13.4282 2.23609 13.5448 2.58611L13.986 3.90973C14.0477 4.09474 13.91 4.28581 13.715 4.28581H2.28594C2.09092 4.28581 1.95321 4.09474 2.01488 3.90973L2.45609 2.58611C2.57276 2.23609 2.90032 2 3.26927 2H12.7316ZM12.7316 2.57145H3.26927C3.14629 2.57145 3.0371 2.65015 2.99821 2.76682L2.68237 3.71435H13.3185L13.0027 2.76682C12.9638 2.65015 12.8546 2.57145 12.7316 2.57145Z" fill="white"/>
<path d="M2.57129 4.2854H13.4289V5.14258C13.4289 6.997 12.2511 8.57635 10.6028 9.17342L12.268 13.614C12.3381 13.8008 12.2 14.0001 12.0005 14.0001H4.00018C3.80068 14.0001 3.66259 13.8008 3.73264 13.614L5.3978 9.17359C3.74926 8.57664 2.57129 6.99717 2.57129 5.14258V4.2854ZM3.14274 4.2854V5.14258C3.14274 7.194 4.80575 8.85701 6.85717 8.85701H9.14298C11.1944 8.85701 12.8574 7.194 12.8574 5.14258V4.2854H3.14274ZM5.91254 9.42846L4.41248 13.4286H11.5882L10.0881 9.42846H5.91254Z" fill="white"/>
</g>
</svg>
