<svg width="16" height="16" viewBox="0 0 16 16" fill="none" xmlns="http://www.w3.org/2000/svg">
<g opacity="0.66">
<path d="M9.3369 10.24L9.54376 7.9645C9.07777 8.19218 8.55404 8.31997 8.00047 8.31997C7.44581 8.31997 6.92111 8.19168 6.45442 7.96315L6.66141 10.24H9.3369ZM9.27872 10.88H6.71959L6.93201 13.2166C6.97696 13.7111 7.39155 14.0897 7.88807 14.0897H8.11024C8.60676 14.0897 9.02135 13.7111 9.0663 13.2166L9.27872 10.88ZM5.77193 7.52481C4.98358 6.87929 4.48047 5.89838 4.48047 4.79997C4.48047 2.85593 6.05643 1.27997 8.00047 1.27997C9.94451 1.27997 11.5205 2.85593 11.5205 4.79997C11.5205 5.8997 11.0161 6.88164 10.2262 7.52714L9.70367 13.2746C9.62875 14.0987 8.93777 14.7297 8.11024 14.7297H7.88807C7.06054 14.7297 6.36956 14.0987 6.29464 13.2746L5.77193 7.52481ZM8.00047 7.67997C9.59105 7.67997 10.8805 6.39055 10.8805 4.79997C10.8805 3.20939 9.59105 1.91997 8.00047 1.91997C6.40989 1.91997 5.12047 3.20939 5.12047 4.79997C5.12047 6.39055 6.40989 7.67997 8.00047 7.67997Z" fill="white"/>
<path d="M4.15984 5.11998C3.98311 5.11998 3.83984 4.97671 3.83984 4.79998C3.83984 4.62325 3.98311 4.47998 4.15984 4.47998H11.8398C12.0166 4.47998 12.1598 4.62325 12.1598 4.79998C12.1598 4.97671 12.0166 5.11998 11.8398 5.11998H4.15984Z" fill="white"/>
</g>
</svg>
