<svg width="16" height="14" viewBox="0 0 16 14" fill="none" xmlns="http://www.w3.org/2000/svg">
<path d="M4.58315 2.04016L5.54352 5.52218L1.27404 3.48811L4.58315 2.04016Z" fill="white"/>
<path d="M8.74686 0.365601C8.47072 0.365601 8.24686 0.589458 8.24686 0.865601C8.24686 1.14174 8.47072 1.3656 8.74686 1.3656V0.365601ZM14.5001 7.11881C14.5001 10.2962 11.9243 12.872 8.74686 12.872V13.872C12.4766 13.872 15.5001 10.8485 15.5001 7.11881H14.5001ZM8.74686 12.872C5.56945 12.872 2.99365 10.2962 2.99365 7.11881H1.99365C1.99365 10.8485 5.01717 13.872 8.74686 13.872V12.872ZM8.74686 1.3656C11.9243 1.3656 14.5001 3.9414 14.5001 7.11881H15.5001C15.5001 3.38912 12.4766 0.365601 8.74686 0.365601V1.3656ZM2.99365 7.11881C2.99365 5.75777 3.46565 4.50833 4.25528 3.52329L3.47504 2.89782C2.54831 4.05387 1.99365 5.52225 1.99365 7.11881H2.99365Z" fill="white"/>
</svg>
