<?xml version="1.0"?>
<svg xmlns="http://www.w3.org/2000/svg" xmlns:xlink="http://www.w3.org/1999/xlink" xmlns:svgjs="http://svgjs.com/svgjs" version="1.1" width="512" height="512" x="0" y="0" viewBox="0 0 512 512" style="enable-background:new 0 0 512 512" xml:space="preserve" class=""><g transform="matrix(1,0,0,1,-2.842170943040401e-14,-5.684341886080802e-14)"><g xmlns="http://www.w3.org/2000/svg"><path d="m176 208.5h30v225h-30z" fill="#ffffff" data-original="#000000" style=""/><path d="m241 208.5h30v225h-30z" fill="#ffffff" data-original="#000000" style=""/><path d="m306 208.5h30v225h-30z" fill="#ffffff" data-original="#000000" style=""/><path d="m437.806 208.5h-10.105l4.478-48.5h33.821v-47.5c0-26.191-21.309-47.5-47.5-47.5h-55.729l-32.5-65h-148.542l-32.5 65h-55.729c-26.191 0-47.5 21.309-47.5 47.5v47.5h33.821l4.478 48.5h-10.105c-26.191 0-47.5 21.309-47.5 47.5s21.309 47.5 47.5 47.5h18.876l19.251 208.5h287.357l19.251-208.5h18.876c26.191 0 47.5-21.309 47.5-47.5s-21.308-47.5-47.499-47.5zm-237.535-178.5h111.459l17.5 35h-146.459zm-124.271 82.5c0-9.649 7.851-17.5 17.5-17.5h325c9.649 0 17.5 7.851 17.5 17.5v17.5h-360zm-1.806 161c-9.649 0-17.5-7.851-17.5-17.5s7.851-17.5 17.5-17.5h12.875l3.232 35zm298.127 208.5h-232.642l-29.73-322h292.102zm65.485-208.5h-16.106l3.232-35h12.875c9.649 0 17.5 7.851 17.5 17.5s-7.852 17.5-17.501 17.5z" fill="#ffffff" data-original="#000000" style=""/></g></g></svg>
