<svg width="512" height="512" viewBox="0 0 512 512" fill="none" xmlns="http://www.w3.org/2000/svg">
<path d="M176 208.5H206V433.5H176V208.5Z" fill="white"/>
<path d="M241 208.5H271V433.5H241V208.5Z" fill="white"/>
<path d="M306 208.5H336V433.5H306V208.5Z" fill="white"/>
<path d="M437.807 208.5H427.702L432.18 160H466.001V112.5C466.001 86.309 444.692 65 418.501 65H362.772L330.272 0H181.73L149.23 65H93.5013C67.3103 65 46.0013 86.309 46.0013 112.5V160H79.8223L84.3003 208.5H74.1953C48.0043 208.5 26.6953 229.809 26.6953 256C26.6953 282.191 48.0043 303.5 74.1953 303.5H93.0713L112.322 512H399.679L418.93 303.5H437.806C463.997 303.5 485.306 282.191 485.306 256C485.306 229.809 463.998 208.5 437.807 208.5ZM200.272 30H311.731L329.231 65H182.772L200.272 30ZM76.0013 112.5C76.0013 102.851 83.8523 95 93.5013 95H418.501C428.15 95 436.001 102.851 436.001 112.5V130H76.0013V112.5ZM74.1953 273.5C64.5463 273.5 56.6953 265.649 56.6953 256C56.6953 246.351 64.5463 238.5 74.1953 238.5H87.0703L90.3023 273.5H74.1953ZM372.322 482H139.68L109.95 160H402.052L372.322 482ZM437.807 273.5H421.701L424.933 238.5H437.808C447.457 238.5 455.308 246.351 455.308 256C455.308 265.649 447.456 273.5 437.807 273.5V273.5Z" fill="white"/>
<path d="M448.902 7L471.725 26.4716L62.8208 505.739L39.9985 486.268L448.902 7Z" fill="white"/>
</svg>
